<?xml version="1.0" encoding="UTF-8"?>
<svg xmlns="http://www.w3.org/2000/svg" xmlns:xlink="http://www.w3.org/1999/xlink" viewBox="0 0 512 512" width="512" height="512"><defs><linearGradient id="linear-gradient" x1="63.149" y1="498.463" x2="448.851" y2="112.76" gradientUnits="userSpaceOnUse"><stop offset="0" stop-color="#41dfd0"/><stop offset="1" stop-color="#ee83ef"/></linearGradient></defs><g id="gradient"><path d="M496,224a24.014,24.014,0,0,0-12.371-20.985,232.04,232.04,0,0,0-455.258,0,23.985,23.985,0,0,0,1.869,42.9,47.906,47.906,0,0,0,2.593,70.544A7.958,7.958,0,0,0,32,320v26.707a27.991,27.991,0,0,0-1.254,49.951A48.976,48.976,0,0,0,16.3,419.835,8,8,0,0,0,24,430c1.3,0,2.511.052,3.669.138A154.6,154.6,0,0,0,57.753,493,8,8,0,0,0,64,496H448a8,8,0,0,0,6.247-3,154.765,154.765,0,0,0,30.079-62.86c1.159-.085,2.372-.138,3.674-.138a8,8,0,0,0,7.7-10.165,48.976,48.976,0,0,0-14.448-23.177A27.991,27.991,0,0,0,480,346.707V320a7.958,7.958,0,0,0-.833-3.539,47.914,47.914,0,0,0,2.6-70.546A24.028,24.028,0,0,0,496,224ZM116.742,82.878A216.06,216.06,0,0,1,466.644,200H45.356A216.464,216.464,0,0,1,116.742,82.878ZM40,232a8,8,0,0,1,0-16H472a8,8,0,0,1,0,16,31.8,31.8,0,0,0-13.509,3,7.891,7.891,0,0,0-.862.421A32.029,32.029,0,0,0,440,264v15.459a16.872,16.872,0,0,1-5.055,11.963A15.539,15.539,0,0,1,423.688,296,16.077,16.077,0,0,1,408,280a24.112,24.112,0,0,0-7.435-17.367,23.823,23.823,0,0,0-17.715-6.606A24.2,24.2,0,0,0,360,280.452V304a16.077,16.077,0,0,1-15.688,16,15.576,15.576,0,0,1-11.257-4.575A16.872,16.872,0,0,1,328,303.459V264a32.036,32.036,0,0,0-32-32Zm24,16h44.687L90.343,266.343a8,8,0,0,0,11.314,11.314L131.313,248h25.374l-18.344,18.343a8,8,0,0,0,11.314,11.314L179.313,248h25.374l-18.344,18.343a8,8,0,0,0,11.314,11.314L227.313,248h25.374l-18.344,18.343a8,8,0,0,0,11.314,11.314L275.313,248H296a15.925,15.925,0,0,1,4.127.559l-17.784,17.784a8,8,0,0,0,11.314,11.314l17.784-17.784A15.925,15.925,0,0,1,312,264v39.459A32.365,32.365,0,0,0,313.163,312H64a32,32,0,0,1,0-64Zm0,80H280v16H48V325.248A47.774,47.774,0,0,0,64,328Zm284,32a12,12,0,0,1,0,24H237.293a27.951,27.951,0,0,0,0-24Zm100.406,40a33.268,33.268,0,0,1,27.8,15.127c-9.732,2-16.021,6.339-21.746,10.287C447.5,430.211,442.006,434,430,434s-17.5-3.789-24.46-8.586C397.778,420.064,388.985,414,371.993,414s-25.785,6.064-33.543,11.414C331.5,430.211,326,434,313.992,434s-17.5-3.789-24.458-8.586C281.776,420.064,272.983,414,255.992,414s-25.783,6.064-33.54,11.415C215.5,430.211,210,434,198,434s-17.5-3.789-24.458-8.585C165.78,420.064,156.987,414,140,414s-25.784,6.064-33.542,11.414C99.5,430.211,94.006,434,82,434s-17.5-3.789-24.456-8.585c-5.725-3.949-12.013-8.286-21.744-10.288A33.268,33.268,0,0,1,63.594,400ZM44,384a12,12,0,0,1,0-24H212a12,12,0,0,1,0,24Zm400.087,96H67.913A138.653,138.653,0,0,1,45.97,436.886c.817.549,1.641,1.116,2.487,1.7C56.214,443.936,65.006,450,82,450s25.784-6.064,33.542-11.415C122.494,433.789,127.988,430,140,430s17.5,3.789,24.457,8.585C172.212,443.936,181.005,450,198,450s25.782-6.064,33.54-11.415c6.955-4.8,12.448-8.585,24.456-8.585s17.5,3.789,24.458,8.585C288.208,443.936,297,450,313.992,450s25.784-6.064,33.542-11.414c6.956-4.8,12.449-8.586,24.459-8.586s17.5,3.789,24.46,8.586C404.211,443.936,413,450,430,450s25.785-6.064,33.544-11.414c.844-.582,1.666-1.149,2.482-1.7A138.878,138.878,0,0,1,444.087,480Zm-70.794-96a27.951,27.951,0,0,0,0-24H468a12,12,0,0,1,0,24ZM464,344H296V328h27.093a31.385,31.385,0,0,0,20.919,8c.2,0,.4,0,.6-.006A31.806,31.806,0,0,0,365.061,328H448a47.774,47.774,0,0,0,16-2.752Zm-16-32H374.97a31.583,31.583,0,0,0,1.03-8V280.452a8.328,8.328,0,0,1,7.6-8.443A8,8,0,0,1,392,280a32.158,32.158,0,0,0,31.384,31.994,31.437,31.437,0,0,0,22.767-9.151A32.972,32.972,0,0,0,456,279.459V264a15.969,15.969,0,0,1,6.232-12.644A31.99,31.99,0,0,1,448,312ZM280,176a8,8,0,0,1,8-8h16a8,8,0,0,1,0,16H288A8,8,0,0,1,280,176Zm48,0a8,8,0,0,1,8-8h64a8,8,0,0,1,0,16H336A8,8,0,0,1,328,176Zm-80-48a8,8,0,1,1,8,8A8,8,0,0,1,248,128Zm16,328a8,8,0,1,1-8-8A8,8,0,0,1,264,456Zm-104,0a8,8,0,1,1-8-8A8,8,0,0,1,160,456Zm200,8a8,8,0,1,1-8-8A8,8,0,0,1,360,464Zm40-8a8,8,0,1,1-8-8A8,8,0,0,1,400,456Zm-288,8a8,8,0,1,1-8-8A8,8,0,0,1,112,464Zm88-352a8,8,0,1,1,8,8A8,8,0,0,1,200,112Zm182.332,30.331a8,8,0,1,1,8,8A8,8,0,0,1,382.332,142.331ZM248.492,76.2a8,8,0,1,1,8,8A8,8,0,0,1,248.492,76.2ZM200,168a8,8,0,1,1,8,8A8,8,0,0,1,200,168ZM144,96a8,8,0,1,1,8,8A8,8,0,0,1,144,96Zm-3.886,52.111a8,8,0,1,1,8,8A8,8,0,0,1,140.114,148.111ZM91.161,167.6a8,8,0,1,1,8,8A8,8,0,0,1,91.161,167.6ZM352,104a8,8,0,1,1,8,8A8,8,0,0,1,352,104Zm-48,8a8,8,0,1,1,8,8A8,8,0,0,1,304,112Z" style="fill:url(#linear-gradient)"/></g></svg>
